<?xml version="1.0" encoding="utf-8"?>
<!-- Generator: Adobe Illustrator 23.0.4, SVG Export Plug-In . SVG Version: 6.00 Build 0)  -->
<svg version="1.1" baseProfile="basic" id="Layer_1"
	 xmlns="http://www.w3.org/2000/svg" xmlns:xlink="http://www.w3.org/1999/xlink" x="0px" y="0px" viewBox="0 0 580 400"
	 xml:space="preserve">
<style type="text/css">
	.st0{fill:none;stroke:#000000;stroke-width:1.5;}
</style>
<g>
	<title  stroke="null">Layer 1</title>
	<g id="svg_580">
		<line id="svg_320" class="st0" x1="176.9" y1="174" x2="374.9" y2="174"/>
		<line id="svg_321" class="st0" x1="192.1" y1="186.8" x2="374.9" y2="186.8"/>
		<line id="svg_322" class="st0" x1="374.9" y1="174" x2="374.9" y2="186.8"/>
		<line id="svg_323" class="st0" x1="177.7" y1="174.7" x2="191.8" y2="186.8"/>
		<line id="svg_324" class="st0" x1="176.9" y1="174" x2="374.9" y2="174"/>
		<line id="svg_325" class="st0" x1="192.1" y1="186.8" x2="374.9" y2="186.8"/>
		<line id="svg_326" class="st0" x1="374.9" y1="174" x2="374.9" y2="186.8"/>
		<line id="svg_327" class="st0" x1="177.7" y1="174.7" x2="191.8" y2="186.8"/>
		<line id="svg_328" class="st0" x1="176.9" y1="174" x2="374.9" y2="174"/>
		<line id="svg_329" class="st0" x1="192.1" y1="186.8" x2="374.9" y2="186.8"/>
		<line id="svg_330" class="st0" x1="374.9" y1="174" x2="374.9" y2="186.8"/>
		<line id="svg_331" class="st0" x1="177.7" y1="174.7" x2="191.8" y2="186.8"/>
		<line id="svg_332" class="st0" x1="176.9" y1="174" x2="374.9" y2="174"/>
		<line id="svg_333" class="st0" x1="192.1" y1="186.8" x2="374.9" y2="186.8"/>
		<line id="svg_334" class="st0" x1="374.9" y1="174" x2="374.9" y2="186.8"/>
		<line id="svg_335" class="st0" x1="177.7" y1="174.7" x2="191.8" y2="186.8"/>
		<line id="svg_336" class="st0" x1="176.9" y1="174" x2="374.9" y2="174"/>
		<line id="svg_337" class="st0" x1="192.1" y1="186.8" x2="374.9" y2="186.8"/>
		<line id="svg_338" class="st0" x1="374.9" y1="174" x2="374.9" y2="186.8"/>
		<line id="svg_339" class="st0" x1="177.7" y1="174.7" x2="191.8" y2="186.8"/>
		<line id="svg_340" class="st0" x1="176.9" y1="174" x2="374.9" y2="174"/>
		<line id="svg_341" class="st0" x1="192.1" y1="186.8" x2="374.9" y2="186.8"/>
		<line id="svg_342" class="st0" x1="374.9" y1="174" x2="374.9" y2="186.8"/>
		<line id="svg_343" class="st0" x1="177.7" y1="174.7" x2="191.8" y2="186.8"/>
		<line id="svg_344" class="st0" x1="176.9" y1="174" x2="374.9" y2="174"/>
		<line id="svg_345" class="st0" x1="192.1" y1="186.8" x2="374.9" y2="186.8"/>
		<line id="svg_346" class="st0" x1="374.9" y1="174" x2="374.9" y2="186.8"/>
		<line id="svg_347" class="st0" x1="177.7" y1="174.7" x2="191.8" y2="186.8"/>
		<line id="svg_348" class="st0" x1="176.9" y1="174" x2="374.9" y2="174"/>
		<line id="svg_349" class="st0" x1="192.1" y1="186.8" x2="374.9" y2="186.8"/>
		<line id="svg_350" class="st0" x1="374.9" y1="174" x2="374.9" y2="186.8"/>
		<line id="svg_351" class="st0" x1="177.7" y1="174.7" x2="191.8" y2="186.8"/>
		<line id="svg_352" class="st0" x1="176.9" y1="174" x2="374.9" y2="174"/>
		<line id="svg_353" class="st0" x1="192.1" y1="186.8" x2="374.9" y2="186.8"/>
		<line id="svg_354" class="st0" x1="374.9" y1="174" x2="374.9" y2="186.8"/>
		<line id="svg_355" class="st0" x1="177.7" y1="174.7" x2="191.8" y2="186.8"/>
		<line id="svg_356" class="st0" x1="176.9" y1="174" x2="374.9" y2="174"/>
		<line id="svg_357" class="st0" x1="192.1" y1="186.8" x2="374.9" y2="186.8"/>
		<line id="svg_358" class="st0" x1="374.9" y1="174" x2="374.9" y2="186.8"/>
		<line id="svg_359" class="st0" x1="177.7" y1="174.7" x2="191.8" y2="186.8"/>
		<line id="svg_360" class="st0" x1="176.9" y1="174" x2="374.9" y2="174"/>
		<line id="svg_361" class="st0" x1="192.1" y1="186.8" x2="374.9" y2="186.8"/>
		<line id="svg_362" class="st0" x1="374.9" y1="174" x2="374.9" y2="186.8"/>
		<line id="svg_363" class="st0" x1="177.7" y1="174.7" x2="191.8" y2="186.8"/>
		<line id="svg_364" class="st0" x1="176.9" y1="174" x2="374.9" y2="174"/>
		<line id="svg_365" class="st0" x1="192.1" y1="186.8" x2="374.9" y2="186.8"/>
		<line id="svg_366" class="st0" x1="374.9" y1="174" x2="374.9" y2="186.8"/>
		<line id="svg_367" class="st0" x1="177.7" y1="174.7" x2="191.8" y2="186.8"/>
		<line id="svg_368" class="st0" x1="176.9" y1="174" x2="374.9" y2="174"/>
		<line id="svg_369" class="st0" x1="192.1" y1="186.8" x2="374.9" y2="186.8"/>
		<line id="svg_370" class="st0" x1="374.9" y1="174" x2="374.9" y2="186.8"/>
		<line id="svg_371" class="st0" x1="177.7" y1="174.7" x2="191.8" y2="186.8"/>
		<line id="svg_372" class="st0" x1="176.9" y1="174" x2="374.9" y2="174"/>
		<line id="svg_373" class="st0" x1="192.1" y1="186.8" x2="374.9" y2="186.8"/>
		<line id="svg_374" class="st0" x1="374.9" y1="174" x2="374.9" y2="186.8"/>
		<line id="svg_375" class="st0" x1="177.7" y1="174.7" x2="191.8" y2="186.8"/>
		<line id="svg_376" class="st0" x1="176.9" y1="174" x2="374.9" y2="174"/>
		<line id="svg_377" class="st0" x1="192.1" y1="186.8" x2="374.9" y2="186.8"/>
		<line id="svg_378" class="st0" x1="374.9" y1="174" x2="374.9" y2="186.8"/>
		<line id="svg_379" class="st0" x1="177.7" y1="174.7" x2="191.8" y2="186.8"/>
		<line id="svg_380" class="st0" x1="176.9" y1="174" x2="374.9" y2="174"/>
		<line id="svg_381" class="st0" x1="192.1" y1="186.8" x2="374.9" y2="186.8"/>
		<line id="svg_382" class="st0" x1="374.9" y1="174" x2="374.9" y2="186.8"/>
		<line id="svg_383" class="st0" x1="177.7" y1="174.7" x2="191.8" y2="186.8"/>
		<g id="svg_448">
			<line id="svg_384" class="st0" x1="198.3" y1="193.9" x2="375.7" y2="193.9"/>
			<line id="svg_385" class="st0" x1="211.9" y1="206.8" x2="375.7" y2="206.8"/>
			<line id="svg_386" class="st0" x1="375.7" y1="193.9" x2="375.7" y2="206.8"/>
			<line id="svg_387" class="st0" x1="199.3" y1="194.7" x2="211.9" y2="206.8"/>
			<line id="svg_388" class="st0" x1="198.3" y1="193.9" x2="375.7" y2="193.9"/>
			<line id="svg_389" class="st0" x1="211.9" y1="206.8" x2="375.7" y2="206.8"/>
			<line id="svg_390" class="st0" x1="375.7" y1="193.9" x2="375.7" y2="206.8"/>
			<line id="svg_391" class="st0" x1="199.3" y1="194.7" x2="211.9" y2="206.8"/>
			<line id="svg_392" class="st0" x1="198.3" y1="193.9" x2="375.7" y2="193.9"/>
			<line id="svg_393" class="st0" x1="211.9" y1="206.8" x2="375.7" y2="206.8"/>
			<line id="svg_394" class="st0" x1="375.7" y1="193.9" x2="375.7" y2="206.8"/>
			<line id="svg_395" class="st0" x1="199.3" y1="194.7" x2="211.9" y2="206.8"/>
			<line id="svg_396" class="st0" x1="198.3" y1="193.9" x2="375.7" y2="193.9"/>
			<line id="svg_397" class="st0" x1="211.9" y1="206.8" x2="375.7" y2="206.8"/>
			<line id="svg_398" class="st0" x1="375.7" y1="193.9" x2="375.7" y2="206.8"/>
			<line id="svg_399" class="st0" x1="199.3" y1="194.7" x2="211.9" y2="206.8"/>
			<line id="svg_400" class="st0" x1="198.3" y1="193.9" x2="375.7" y2="193.9"/>
			<line id="svg_401" class="st0" x1="211.9" y1="206.8" x2="375.7" y2="206.8"/>
			<line id="svg_402" class="st0" x1="375.7" y1="193.9" x2="375.7" y2="206.8"/>
			<line id="svg_403" class="st0" x1="199.3" y1="194.7" x2="211.9" y2="206.8"/>
			<line id="svg_404" class="st0" x1="198.3" y1="193.9" x2="375.7" y2="193.9"/>
			<line id="svg_405" class="st0" x1="211.9" y1="206.8" x2="375.7" y2="206.8"/>
			<line id="svg_406" class="st0" x1="375.7" y1="193.9" x2="375.7" y2="206.8"/>
			<line id="svg_407" class="st0" x1="199.3" y1="194.7" x2="211.9" y2="206.8"/>
			<line id="svg_408" class="st0" x1="198.3" y1="193.9" x2="375.7" y2="193.9"/>
			<line id="svg_409" class="st0" x1="211.9" y1="206.8" x2="375.7" y2="206.8"/>
			<line id="svg_410" class="st0" x1="375.7" y1="193.9" x2="375.7" y2="206.8"/>
			<line id="svg_411" class="st0" x1="199.3" y1="194.7" x2="211.9" y2="206.8"/>
			<line id="svg_412" class="st0" x1="198.3" y1="193.9" x2="375.7" y2="193.9"/>
			<line id="svg_413" class="st0" x1="211.9" y1="206.8" x2="375.7" y2="206.8"/>
			<line id="svg_414" class="st0" x1="375.7" y1="193.9" x2="375.7" y2="206.8"/>
			<line id="svg_415" class="st0" x1="199.3" y1="194.7" x2="211.9" y2="206.8"/>
			<line id="svg_416" class="st0" x1="198.3" y1="193.9" x2="375.7" y2="193.9"/>
			<line id="svg_417" class="st0" x1="211.9" y1="206.8" x2="375.7" y2="206.8"/>
			<line id="svg_418" class="st0" x1="375.7" y1="193.9" x2="375.7" y2="206.8"/>
			<line id="svg_419" class="st0" x1="199.3" y1="194.7" x2="211.9" y2="206.8"/>
			<line id="svg_420" class="st0" x1="198.3" y1="193.9" x2="375.7" y2="193.9"/>
			<line id="svg_421" class="st0" x1="211.9" y1="206.8" x2="375.7" y2="206.8"/>
			<line id="svg_422" class="st0" x1="375.7" y1="193.9" x2="375.7" y2="206.8"/>
			<line id="svg_423" class="st0" x1="199.3" y1="194.7" x2="211.9" y2="206.8"/>
			<line id="svg_424" class="st0" x1="198.3" y1="193.9" x2="375.7" y2="193.9"/>
			<line id="svg_425" class="st0" x1="211.9" y1="206.8" x2="375.7" y2="206.8"/>
			<line id="svg_426" class="st0" x1="375.7" y1="193.9" x2="375.7" y2="206.8"/>
			<line id="svg_427" class="st0" x1="199.3" y1="194.7" x2="211.9" y2="206.8"/>
			<line id="svg_428" class="st0" x1="198.3" y1="193.9" x2="375.7" y2="193.9"/>
			<line id="svg_429" class="st0" x1="211.9" y1="206.8" x2="375.7" y2="206.8"/>
			<line id="svg_430" class="st0" x1="375.7" y1="193.9" x2="375.7" y2="206.8"/>
			<line id="svg_431" class="st0" x1="199.3" y1="194.7" x2="211.9" y2="206.8"/>
			<line id="svg_432" class="st0" x1="198.3" y1="193.9" x2="375.7" y2="193.9"/>
			<line id="svg_433" class="st0" x1="211.9" y1="206.8" x2="375.7" y2="206.8"/>
			<line id="svg_434" class="st0" x1="375.7" y1="193.9" x2="375.7" y2="206.8"/>
			<line id="svg_435" class="st0" x1="199.3" y1="194.7" x2="211.9" y2="206.8"/>
			<line id="svg_436" class="st0" x1="198.3" y1="193.9" x2="375.7" y2="193.9"/>
			<line id="svg_437" class="st0" x1="211.9" y1="206.8" x2="375.7" y2="206.8"/>
			<line id="svg_438" class="st0" x1="375.7" y1="193.9" x2="375.7" y2="206.8"/>
			<line id="svg_439" class="st0" x1="199.3" y1="194.7" x2="211.9" y2="206.8"/>
			<line id="svg_440" class="st0" x1="198.3" y1="193.9" x2="375.7" y2="193.9"/>
			<line id="svg_441" class="st0" x1="211.9" y1="206.8" x2="375.7" y2="206.8"/>
			<line id="svg_442" class="st0" x1="375.7" y1="193.9" x2="375.7" y2="206.8"/>
			<line id="svg_443" class="st0" x1="199.3" y1="194.7" x2="211.9" y2="206.8"/>
			<line id="svg_444" class="st0" x1="198.3" y1="193.9" x2="375.7" y2="193.9"/>
			<line id="svg_445" class="st0" x1="211.9" y1="206.8" x2="375.7" y2="206.8"/>
			<line id="svg_446" class="st0" x1="375.7" y1="193.9" x2="375.7" y2="206.8"/>
			<line id="svg_447" class="st0" x1="199.3" y1="194.7" x2="211.9" y2="206.8"/>
		</g>
		<g id="svg_513">
			<line id="svg_449" class="st0" x1="221" y1="213.2" x2="375.7" y2="213.2"/>
			<line id="svg_450" class="st0" x1="232.8" y1="226" x2="375.7" y2="226"/>
			<line id="svg_451" class="st0" x1="375.7" y1="213.2" x2="375.7" y2="226"/>
			<line id="svg_452" class="st0" x1="221.9" y1="213.9" x2="232.8" y2="226"/>
			<line id="svg_453" class="st0" x1="221" y1="213.2" x2="375.7" y2="213.2"/>
			<line id="svg_454" class="st0" x1="232.8" y1="226" x2="375.7" y2="226"/>
			<line id="svg_455" class="st0" x1="375.7" y1="213.2" x2="375.7" y2="226"/>
			<line id="svg_456" class="st0" x1="221.9" y1="213.9" x2="232.8" y2="226"/>
			<line id="svg_457" class="st0" x1="221" y1="213.2" x2="375.7" y2="213.2"/>
			<line id="svg_458" class="st0" x1="232.8" y1="226" x2="375.7" y2="226"/>
			<line id="svg_459" class="st0" x1="375.7" y1="213.2" x2="375.7" y2="226"/>
			<line id="svg_460" class="st0" x1="221.9" y1="213.9" x2="232.8" y2="226"/>
			<line id="svg_461" class="st0" x1="221" y1="213.2" x2="375.7" y2="213.2"/>
			<line id="svg_462" class="st0" x1="232.8" y1="226" x2="375.7" y2="226"/>
			<line id="svg_463" class="st0" x1="375.7" y1="213.2" x2="375.7" y2="226"/>
			<line id="svg_464" class="st0" x1="221.9" y1="213.9" x2="232.8" y2="226"/>
			<line id="svg_465" class="st0" x1="221" y1="213.2" x2="375.7" y2="213.2"/>
			<line id="svg_466" class="st0" x1="232.8" y1="226" x2="375.7" y2="226"/>
			<line id="svg_467" class="st0" x1="375.7" y1="213.2" x2="375.7" y2="226"/>
			<line id="svg_468" class="st0" x1="221.9" y1="213.9" x2="232.8" y2="226"/>
			<line id="svg_469" class="st0" x1="221" y1="213.2" x2="375.7" y2="213.2"/>
			<line id="svg_470" class="st0" x1="232.8" y1="226" x2="375.7" y2="226"/>
			<line id="svg_471" class="st0" x1="375.7" y1="213.2" x2="375.7" y2="226"/>
			<line id="svg_472" class="st0" x1="221.9" y1="213.9" x2="232.8" y2="226"/>
			<line id="svg_473" class="st0" x1="221" y1="213.2" x2="375.7" y2="213.2"/>
			<line id="svg_474" class="st0" x1="232.8" y1="226" x2="375.7" y2="226"/>
			<line id="svg_475" class="st0" x1="375.7" y1="213.2" x2="375.7" y2="226"/>
			<line id="svg_476" class="st0" x1="221.9" y1="213.9" x2="232.8" y2="226"/>
			<line id="svg_477" class="st0" x1="221" y1="213.2" x2="375.7" y2="213.2"/>
			<line id="svg_478" class="st0" x1="232.8" y1="226" x2="375.7" y2="226"/>
			<line id="svg_479" class="st0" x1="375.7" y1="213.2" x2="375.7" y2="226"/>
			<line id="svg_480" class="st0" x1="221.9" y1="213.9" x2="232.8" y2="226"/>
			<line id="svg_481" class="st0" x1="221" y1="213.2" x2="375.7" y2="213.2"/>
			<line id="svg_482" class="st0" x1="232.8" y1="226" x2="375.7" y2="226"/>
			<line id="svg_483" class="st0" x1="375.7" y1="213.2" x2="375.7" y2="226"/>
			<line id="svg_484" class="st0" x1="221.9" y1="213.9" x2="232.8" y2="226"/>
			<line id="svg_485" class="st0" x1="221" y1="213.2" x2="375.7" y2="213.2"/>
			<line id="svg_486" class="st0" x1="232.8" y1="226" x2="375.7" y2="226"/>
			<line id="svg_487" class="st0" x1="375.7" y1="213.2" x2="375.7" y2="226"/>
			<line id="svg_488" class="st0" x1="221.9" y1="213.9" x2="232.8" y2="226"/>
			<line id="svg_489" class="st0" x1="221" y1="213.2" x2="375.7" y2="213.2"/>
			<line id="svg_490" class="st0" x1="232.8" y1="226" x2="375.7" y2="226"/>
			<line id="svg_491" class="st0" x1="375.7" y1="213.2" x2="375.7" y2="226"/>
			<line id="svg_492" class="st0" x1="221.9" y1="213.9" x2="232.8" y2="226"/>
			<line id="svg_493" class="st0" x1="221" y1="213.2" x2="375.7" y2="213.2"/>
			<line id="svg_494" class="st0" x1="232.8" y1="226" x2="375.7" y2="226"/>
			<line id="svg_495" class="st0" x1="375.7" y1="213.2" x2="375.7" y2="226"/>
			<line id="svg_496" class="st0" x1="221.9" y1="213.9" x2="232.8" y2="226"/>
			<line id="svg_497" class="st0" x1="221" y1="213.2" x2="375.7" y2="213.2"/>
			<line id="svg_498" class="st0" x1="232.8" y1="226" x2="375.7" y2="226"/>
			<line id="svg_499" class="st0" x1="375.7" y1="213.2" x2="375.7" y2="226"/>
			<line id="svg_500" class="st0" x1="221.9" y1="213.9" x2="232.8" y2="226"/>
			<line id="svg_501" class="st0" x1="221" y1="213.2" x2="375.7" y2="213.2"/>
			<line id="svg_502" class="st0" x1="232.8" y1="226" x2="375.7" y2="226"/>
			<line id="svg_503" class="st0" x1="375.7" y1="213.2" x2="375.7" y2="226"/>
			<line id="svg_504" class="st0" x1="221.9" y1="213.9" x2="232.8" y2="226"/>
			<line id="svg_505" class="st0" x1="221" y1="213.2" x2="375.7" y2="213.2"/>
			<line id="svg_506" class="st0" x1="232.8" y1="226" x2="375.7" y2="226"/>
			<line id="svg_507" class="st0" x1="375.7" y1="213.2" x2="375.7" y2="226"/>
			<line id="svg_508" class="st0" x1="221.9" y1="213.9" x2="232.8" y2="226"/>
			<line id="svg_509" class="st0" x1="221" y1="213.2" x2="375.7" y2="213.2"/>
			<line id="svg_510" class="st0" x1="232.8" y1="226" x2="375.7" y2="226"/>
			<line id="svg_511" class="st0" x1="375.7" y1="213.2" x2="375.7" y2="226"/>
			<line id="svg_512" class="st0" x1="221.9" y1="213.9" x2="232.8" y2="226"/>
		</g>
		<g id="svg_578">
			<line id="svg_514" class="st0" x1="198.3" y1="193.9" x2="375.7" y2="193.9"/>
			<line id="svg_515" class="st0" x1="211.9" y1="206.8" x2="375.7" y2="206.8"/>
			<line id="svg_516" class="st0" x1="375.7" y1="193.9" x2="375.7" y2="206.8"/>
			<line id="svg_517" class="st0" x1="199.3" y1="194.7" x2="211.9" y2="206.8"/>
			<line id="svg_518" class="st0" x1="198.3" y1="193.9" x2="375.7" y2="193.9"/>
			<line id="svg_519" class="st0" x1="211.9" y1="206.8" x2="375.7" y2="206.8"/>
			<line id="svg_520" class="st0" x1="375.7" y1="193.9" x2="375.7" y2="206.8"/>
			<line id="svg_521" class="st0" x1="199.3" y1="194.7" x2="211.9" y2="206.8"/>
			<line id="svg_522" class="st0" x1="198.3" y1="193.9" x2="375.7" y2="193.9"/>
			<line id="svg_523" class="st0" x1="211.9" y1="206.8" x2="375.7" y2="206.8"/>
			<line id="svg_524" class="st0" x1="375.7" y1="193.9" x2="375.7" y2="206.8"/>
			<line id="svg_525" class="st0" x1="199.3" y1="194.7" x2="211.9" y2="206.8"/>
			<line id="svg_526" class="st0" x1="198.3" y1="193.9" x2="375.7" y2="193.9"/>
			<line id="svg_527" class="st0" x1="211.9" y1="206.8" x2="375.7" y2="206.8"/>
			<line id="svg_528" class="st0" x1="375.7" y1="193.9" x2="375.7" y2="206.8"/>
			<line id="svg_529" class="st0" x1="199.3" y1="194.7" x2="211.9" y2="206.8"/>
			<line id="svg_530" class="st0" x1="198.3" y1="193.9" x2="375.7" y2="193.9"/>
			<line id="svg_531" class="st0" x1="211.9" y1="206.8" x2="375.7" y2="206.8"/>
			<line id="svg_532" class="st0" x1="375.7" y1="193.9" x2="375.7" y2="206.8"/>
			<line id="svg_533" class="st0" x1="199.3" y1="194.7" x2="211.9" y2="206.8"/>
			<line id="svg_534" class="st0" x1="198.3" y1="193.9" x2="375.7" y2="193.9"/>
			<line id="svg_535" class="st0" x1="211.9" y1="206.8" x2="375.7" y2="206.8"/>
			<line id="svg_536" class="st0" x1="375.7" y1="193.9" x2="375.7" y2="206.8"/>
			<line id="svg_537" class="st0" x1="199.3" y1="194.7" x2="211.9" y2="206.8"/>
			<line id="svg_538" class="st0" x1="198.3" y1="193.9" x2="375.7" y2="193.9"/>
			<line id="svg_539" class="st0" x1="211.9" y1="206.8" x2="375.7" y2="206.8"/>
			<line id="svg_540" class="st0" x1="375.7" y1="193.9" x2="375.7" y2="206.8"/>
			<line id="svg_541" class="st0" x1="199.3" y1="194.7" x2="211.9" y2="206.8"/>
			<line id="svg_542" class="st0" x1="198.3" y1="193.9" x2="375.7" y2="193.9"/>
			<line id="svg_543" class="st0" x1="211.9" y1="206.8" x2="375.7" y2="206.8"/>
			<line id="svg_544" class="st0" x1="375.7" y1="193.9" x2="375.7" y2="206.8"/>
			<line id="svg_545" class="st0" x1="199.3" y1="194.7" x2="211.9" y2="206.8"/>
			<line id="svg_546" class="st0" x1="198.3" y1="193.9" x2="375.7" y2="193.9"/>
			<line id="svg_547" class="st0" x1="211.9" y1="206.8" x2="375.7" y2="206.8"/>
			<line id="svg_548" class="st0" x1="375.7" y1="193.9" x2="375.7" y2="206.8"/>
			<line id="svg_549" class="st0" x1="199.3" y1="194.7" x2="211.9" y2="206.8"/>
			<line id="svg_550" class="st0" x1="198.3" y1="193.9" x2="375.7" y2="193.9"/>
			<line id="svg_551" class="st0" x1="211.9" y1="206.8" x2="375.7" y2="206.8"/>
			<line id="svg_552" class="st0" x1="375.7" y1="193.9" x2="375.7" y2="206.8"/>
			<line id="svg_553" class="st0" x1="199.3" y1="194.7" x2="211.9" y2="206.8"/>
			<line id="svg_554" class="st0" x1="198.3" y1="193.9" x2="375.7" y2="193.9"/>
			<line id="svg_555" class="st0" x1="211.9" y1="206.8" x2="375.7" y2="206.8"/>
			<line id="svg_556" class="st0" x1="375.7" y1="193.9" x2="375.7" y2="206.8"/>
			<line id="svg_557" class="st0" x1="199.3" y1="194.7" x2="211.9" y2="206.8"/>
			<line id="svg_558" class="st0" x1="198.3" y1="193.9" x2="375.7" y2="193.9"/>
			<line id="svg_559" class="st0" x1="211.9" y1="206.8" x2="375.7" y2="206.8"/>
			<line id="svg_560" class="st0" x1="375.7" y1="193.9" x2="375.7" y2="206.8"/>
			<line id="svg_561" class="st0" x1="199.3" y1="194.7" x2="211.9" y2="206.8"/>
			<line id="svg_562" class="st0" x1="198.3" y1="193.9" x2="375.7" y2="193.9"/>
			<line id="svg_563" class="st0" x1="211.9" y1="206.8" x2="375.7" y2="206.8"/>
			<line id="svg_564" class="st0" x1="375.7" y1="193.9" x2="375.7" y2="206.8"/>
			<line id="svg_565" class="st0" x1="199.3" y1="194.7" x2="211.9" y2="206.8"/>
			<line id="svg_566" class="st0" x1="198.3" y1="193.9" x2="375.7" y2="193.9"/>
			<line id="svg_567" class="st0" x1="211.9" y1="206.8" x2="375.7" y2="206.8"/>
			<line id="svg_568" class="st0" x1="375.7" y1="193.9" x2="375.7" y2="206.8"/>
			<line id="svg_569" class="st0" x1="199.3" y1="194.7" x2="211.9" y2="206.8"/>
			<line id="svg_570" class="st0" x1="198.3" y1="193.9" x2="375.7" y2="193.9"/>
			<line id="svg_571" class="st0" x1="211.9" y1="206.8" x2="375.7" y2="206.8"/>
			<line id="svg_572" class="st0" x1="375.7" y1="193.9" x2="375.7" y2="206.8"/>
			<line id="svg_573" class="st0" x1="199.3" y1="194.7" x2="211.9" y2="206.8"/>
			<line id="svg_574" class="st0" x1="198.3" y1="193.9" x2="375.7" y2="193.9"/>
			<line id="svg_575" class="st0" x1="211.9" y1="206.8" x2="375.7" y2="206.8"/>
			<line id="svg_576" class="st0" x1="375.7" y1="193.9" x2="375.7" y2="206.8"/>
			<line id="svg_577" class="st0" x1="199.3" y1="194.7" x2="211.9" y2="206.8"/>
		</g>
	</g>
</g>
</svg>
