<svg id="Layer_1" data-name="Layer 1" xmlns="http://www.w3.org/2000/svg" viewBox="0 0 198.83 52.5"><defs><style>.cls-1{fill:none;stroke:#fff;stroke-width:1.5px;}</style></defs><title>right2</title><g id="svg_581" data-name="svg 581"><line id="svg_582" data-name="svg 582" class="cls-1" x1="198.83" y1="0.75" x2="1.41" y2="0.75"/><line id="svg_583" data-name="svg 583" class="cls-1" x1="183.73" y1="13.33" x2="1.41" y2="13.33"/><line id="svg_584" data-name="svg 584" class="cls-1" x1="1.41" y1="0.75" x2="1.41" y2="13.33"/><line id="svg_585" data-name="svg 585" class="cls-1" x1="198.17" y1="1.45" x2="184.15" y2="13.33"/><line id="svg_586" data-name="svg 586" class="cls-1" x1="198.83" y1="0.75" x2="1.41" y2="0.75"/><line id="svg_587" data-name="svg 587" class="cls-1" x1="183.73" y1="13.33" x2="1.41" y2="13.33"/><line id="svg_588" data-name="svg 588" class="cls-1" x1="1.41" y1="0.75" x2="1.41" y2="13.33"/><line id="svg_589" data-name="svg 589" class="cls-1" x1="198.17" y1="1.45" x2="184.15" y2="13.33"/><line id="svg_590" data-name="svg 590" class="cls-1" x1="198.83" y1="0.75" x2="1.41" y2="0.75"/><line id="svg_591" data-name="svg 591" class="cls-1" x1="183.73" y1="13.33" x2="1.41" y2="13.33"/><line id="svg_592" data-name="svg 592" class="cls-1" x1="1.41" y1="0.75" x2="1.41" y2="13.33"/><line id="svg_593" data-name="svg 593" class="cls-1" x1="198.17" y1="1.45" x2="184.15" y2="13.33"/><line id="svg_594" data-name="svg 594" class="cls-1" x1="198.83" y1="0.75" x2="1.41" y2="0.75"/><line id="svg_595" data-name="svg 595" class="cls-1" x1="183.73" y1="13.33" x2="1.41" y2="13.33"/><line id="svg_596" data-name="svg 596" class="cls-1" x1="1.41" y1="0.75" x2="1.41" y2="13.33"/><line id="svg_597" data-name="svg 597" class="cls-1" x1="198.17" y1="1.45" x2="184.15" y2="13.33"/><line id="svg_598" data-name="svg 598" class="cls-1" x1="198.83" y1="0.75" x2="1.41" y2="0.75"/><line id="svg_599" data-name="svg 599" class="cls-1" x1="183.73" y1="13.33" x2="1.41" y2="13.33"/><line id="svg_600" data-name="svg 600" class="cls-1" x1="1.41" y1="0.75" x2="1.41" y2="13.33"/><line id="svg_601" data-name="svg 601" class="cls-1" x1="198.17" y1="1.45" x2="184.15" y2="13.33"/><line id="svg_602" data-name="svg 602" class="cls-1" x1="198.83" y1="0.75" x2="1.41" y2="0.75"/><line id="svg_603" data-name="svg 603" class="cls-1" x1="183.73" y1="13.33" x2="1.41" y2="13.33"/><line id="svg_604" data-name="svg 604" class="cls-1" x1="1.41" y1="0.75" x2="1.41" y2="13.33"/><line id="svg_605" data-name="svg 605" class="cls-1" x1="198.17" y1="1.45" x2="184.15" y2="13.33"/><line id="svg_606" data-name="svg 606" class="cls-1" x1="198.83" y1="0.75" x2="1.41" y2="0.75"/><line id="svg_607" data-name="svg 607" class="cls-1" x1="183.73" y1="13.33" x2="1.41" y2="13.33"/><line id="svg_608" data-name="svg 608" class="cls-1" x1="1.41" y1="0.75" x2="1.41" y2="13.33"/><line id="svg_609" data-name="svg 609" class="cls-1" x1="198.17" y1="1.45" x2="184.15" y2="13.33"/><line id="svg_610" data-name="svg 610" class="cls-1" x1="198.83" y1="0.75" x2="1.41" y2="0.75"/><line id="svg_611" data-name="svg 611" class="cls-1" x1="183.73" y1="13.33" x2="1.41" y2="13.33"/><line id="svg_612" data-name="svg 612" class="cls-1" x1="1.41" y1="0.75" x2="1.41" y2="13.33"/><line id="svg_613" data-name="svg 613" class="cls-1" x1="198.17" y1="1.45" x2="184.15" y2="13.33"/><line id="svg_614" data-name="svg 614" class="cls-1" x1="198.83" y1="0.75" x2="1.41" y2="0.75"/><line id="svg_615" data-name="svg 615" class="cls-1" x1="183.73" y1="13.33" x2="1.41" y2="13.33"/><line id="svg_616" data-name="svg 616" class="cls-1" x1="1.41" y1="0.75" x2="1.41" y2="13.33"/><line id="svg_617" data-name="svg 617" class="cls-1" x1="198.17" y1="1.45" x2="184.15" y2="13.33"/><line id="svg_618" data-name="svg 618" class="cls-1" x1="198.83" y1="0.75" x2="1.41" y2="0.75"/><line id="svg_619" data-name="svg 619" class="cls-1" x1="183.73" y1="13.33" x2="1.41" y2="13.33"/><line id="svg_620" data-name="svg 620" class="cls-1" x1="1.41" y1="0.75" x2="1.41" y2="13.33"/><line id="svg_621" data-name="svg 621" class="cls-1" x1="198.17" y1="1.45" x2="184.15" y2="13.33"/><line id="svg_622" data-name="svg 622" class="cls-1" x1="198.83" y1="0.75" x2="1.41" y2="0.75"/><line id="svg_623" data-name="svg 623" class="cls-1" x1="183.73" y1="13.33" x2="1.41" y2="13.33"/><line id="svg_624" data-name="svg 624" class="cls-1" x1="1.41" y1="0.75" x2="1.41" y2="13.33"/><line id="svg_625" data-name="svg 625" class="cls-1" x1="198.17" y1="1.45" x2="184.15" y2="13.33"/><line id="svg_626" data-name="svg 626" class="cls-1" x1="198.83" y1="0.75" x2="1.41" y2="0.75"/><line id="svg_627" data-name="svg 627" class="cls-1" x1="183.73" y1="13.33" x2="1.41" y2="13.33"/><line id="svg_628" data-name="svg 628" class="cls-1" x1="1.41" y1="0.75" x2="1.41" y2="13.33"/><line id="svg_629" data-name="svg 629" class="cls-1" x1="198.17" y1="1.45" x2="184.15" y2="13.33"/><line id="svg_630" data-name="svg 630" class="cls-1" x1="198.83" y1="0.75" x2="1.41" y2="0.75"/><line id="svg_631" data-name="svg 631" class="cls-1" x1="183.73" y1="13.33" x2="1.41" y2="13.33"/><line id="svg_632" data-name="svg 632" class="cls-1" x1="1.41" y1="0.75" x2="1.41" y2="13.33"/><line id="svg_633" data-name="svg 633" class="cls-1" x1="198.17" y1="1.45" x2="184.15" y2="13.33"/><line id="svg_634" data-name="svg 634" class="cls-1" x1="198.83" y1="0.75" x2="1.41" y2="0.75"/><line id="svg_635" data-name="svg 635" class="cls-1" x1="183.73" y1="13.33" x2="1.41" y2="13.33"/><line id="svg_636" data-name="svg 636" class="cls-1" x1="1.41" y1="0.75" x2="1.41" y2="13.33"/><line id="svg_637" data-name="svg 637" class="cls-1" x1="198.17" y1="1.45" x2="184.15" y2="13.33"/><line id="svg_638" data-name="svg 638" class="cls-1" x1="198.83" y1="0.75" x2="1.41" y2="0.75"/><line id="svg_639" data-name="svg 639" class="cls-1" x1="183.73" y1="13.33" x2="1.41" y2="13.33"/><line id="svg_640" data-name="svg 640" class="cls-1" x1="1.41" y1="0.75" x2="1.41" y2="13.33"/><line id="svg_641" data-name="svg 641" class="cls-1" x1="198.17" y1="1.45" x2="184.15" y2="13.33"/><line id="svg_642" data-name="svg 642" class="cls-1" x1="198.83" y1="0.75" x2="1.41" y2="0.75"/><line id="svg_643" data-name="svg 643" class="cls-1" x1="183.73" y1="13.33" x2="1.41" y2="13.33"/><line id="svg_644" data-name="svg 644" class="cls-1" x1="1.41" y1="0.75" x2="1.41" y2="13.33"/><line id="svg_645" data-name="svg 645" class="cls-1" x1="198.17" y1="1.45" x2="184.15" y2="13.33"/><g id="svg_710" data-name="svg 710"><line id="svg_646" data-name="svg 646" class="cls-1" x1="177.67" y1="20.31" x2="0.75" y2="20.31"/><line id="svg_647" data-name="svg 647" class="cls-1" x1="164.14" y1="32.89" x2="0.75" y2="32.89"/><line id="svg_648" data-name="svg 648" class="cls-1" x1="0.75" y1="20.31" x2="0.75" y2="32.89"/><line id="svg_649" data-name="svg 649" class="cls-1" x1="176.71" y1="21.01" x2="164.14" y2="32.89"/><line id="svg_650" data-name="svg 650" class="cls-1" x1="177.67" y1="20.31" x2="0.75" y2="20.31"/><line id="svg_651" data-name="svg 651" class="cls-1" x1="164.14" y1="32.89" x2="0.75" y2="32.89"/><line id="svg_652" data-name="svg 652" class="cls-1" x1="0.75" y1="20.31" x2="0.75" y2="32.89"/><line id="svg_653" data-name="svg 653" class="cls-1" x1="176.71" y1="21.01" x2="164.14" y2="32.89"/><line id="svg_654" data-name="svg 654" class="cls-1" x1="177.67" y1="20.31" x2="0.75" y2="20.31"/><line id="svg_655" data-name="svg 655" class="cls-1" x1="164.14" y1="32.89" x2="0.75" y2="32.89"/><line id="svg_656" data-name="svg 656" class="cls-1" x1="0.75" y1="20.31" x2="0.75" y2="32.89"/><line id="svg_657" data-name="svg 657" class="cls-1" x1="176.71" y1="21.01" x2="164.14" y2="32.89"/><line id="svg_658" data-name="svg 658" class="cls-1" x1="177.67" y1="20.31" x2="0.75" y2="20.31"/><line id="svg_659" data-name="svg 659" class="cls-1" x1="164.14" y1="32.89" x2="0.75" y2="32.89"/><line id="svg_660" data-name="svg 660" class="cls-1" x1="0.75" y1="20.31" x2="0.75" y2="32.89"/><line id="svg_661" data-name="svg 661" class="cls-1" x1="176.71" y1="21.01" x2="164.14" y2="32.89"/><line id="svg_662" data-name="svg 662" class="cls-1" x1="177.67" y1="20.31" x2="0.75" y2="20.31"/><line id="svg_663" data-name="svg 663" class="cls-1" x1="164.14" y1="32.89" x2="0.75" y2="32.89"/><line id="svg_664" data-name="svg 664" class="cls-1" x1="0.75" y1="20.31" x2="0.75" y2="32.89"/><line id="svg_665" data-name="svg 665" class="cls-1" x1="176.71" y1="21.01" x2="164.14" y2="32.89"/><line id="svg_666" data-name="svg 666" class="cls-1" x1="177.67" y1="20.31" x2="0.75" y2="20.31"/><line id="svg_667" data-name="svg 667" class="cls-1" x1="164.14" y1="32.89" x2="0.75" y2="32.89"/><line id="svg_668" data-name="svg 668" class="cls-1" x1="0.75" y1="20.31" x2="0.75" y2="32.89"/><line id="svg_669" data-name="svg 669" class="cls-1" x1="176.71" y1="21.01" x2="164.14" y2="32.89"/><line id="svg_670" data-name="svg 670" class="cls-1" x1="177.67" y1="20.31" x2="0.75" y2="20.31"/><line id="svg_671" data-name="svg 671" class="cls-1" x1="164.14" y1="32.89" x2="0.75" y2="32.89"/><line id="svg_672" data-name="svg 672" class="cls-1" x1="0.75" y1="20.31" x2="0.75" y2="32.89"/><line id="svg_673" data-name="svg 673" class="cls-1" x1="176.71" y1="21.01" x2="164.14" y2="32.89"/><line id="svg_674" data-name="svg 674" class="cls-1" x1="177.67" y1="20.31" x2="0.75" y2="20.31"/><line id="svg_675" data-name="svg 675" class="cls-1" x1="164.14" y1="32.89" x2="0.75" y2="32.89"/><line id="svg_676" data-name="svg 676" class="cls-1" x1="0.75" y1="20.31" x2="0.75" y2="32.89"/><line id="svg_677" data-name="svg 677" class="cls-1" x1="176.71" y1="21.01" x2="164.14" y2="32.89"/><line id="svg_678" data-name="svg 678" class="cls-1" x1="177.67" y1="20.31" x2="0.75" y2="20.31"/><line id="svg_679" data-name="svg 679" class="cls-1" x1="164.14" y1="32.89" x2="0.75" y2="32.89"/><line id="svg_680" data-name="svg 680" class="cls-1" x1="0.75" y1="20.31" x2="0.75" y2="32.89"/><line id="svg_681" data-name="svg 681" class="cls-1" x1="176.71" y1="21.01" x2="164.14" y2="32.89"/><line id="svg_682" data-name="svg 682" class="cls-1" x1="177.67" y1="20.31" x2="0.75" y2="20.31"/><line id="svg_683" data-name="svg 683" class="cls-1" x1="164.14" y1="32.89" x2="0.75" y2="32.89"/><line id="svg_684" data-name="svg 684" class="cls-1" x1="0.75" y1="20.31" x2="0.75" y2="32.89"/><line id="svg_685" data-name="svg 685" class="cls-1" x1="176.71" y1="21.01" x2="164.14" y2="32.89"/><line id="svg_686" data-name="svg 686" class="cls-1" x1="177.67" y1="20.31" x2="0.75" y2="20.31"/><line id="svg_687" data-name="svg 687" class="cls-1" x1="164.14" y1="32.89" x2="0.75" y2="32.89"/><line id="svg_688" data-name="svg 688" class="cls-1" x1="0.75" y1="20.31" x2="0.75" y2="32.89"/><line id="svg_689" data-name="svg 689" class="cls-1" x1="176.71" y1="21.01" x2="164.14" y2="32.89"/><line id="svg_690" data-name="svg 690" class="cls-1" x1="177.67" y1="20.31" x2="0.75" y2="20.31"/><line id="svg_691" data-name="svg 691" class="cls-1" x1="164.14" y1="32.89" x2="0.75" y2="32.89"/><line id="svg_692" data-name="svg 692" class="cls-1" x1="0.75" y1="20.31" x2="0.75" y2="32.89"/><line id="svg_693" data-name="svg 693" class="cls-1" x1="176.71" y1="21.01" x2="164.14" y2="32.89"/><line id="svg_694" data-name="svg 694" class="cls-1" x1="177.67" y1="20.31" x2="0.75" y2="20.31"/><line id="svg_695" data-name="svg 695" class="cls-1" x1="164.14" y1="32.89" x2="0.75" y2="32.89"/><line id="svg_696" data-name="svg 696" class="cls-1" x1="0.75" y1="20.31" x2="0.75" y2="32.89"/><line id="svg_697" data-name="svg 697" class="cls-1" x1="176.71" y1="21.01" x2="164.14" y2="32.89"/><line id="svg_698" data-name="svg 698" class="cls-1" x1="177.67" y1="20.31" x2="0.75" y2="20.31"/><line id="svg_699" data-name="svg 699" class="cls-1" x1="164.14" y1="32.89" x2="0.75" y2="32.89"/><line id="svg_700" data-name="svg 700" class="cls-1" x1="0.75" y1="20.31" x2="0.75" y2="32.89"/><line id="svg_701" data-name="svg 701" class="cls-1" x1="176.71" y1="21.01" x2="164.14" y2="32.89"/><line id="svg_702" data-name="svg 702" class="cls-1" x1="177.67" y1="20.31" x2="0.75" y2="20.31"/><line id="svg_703" data-name="svg 703" class="cls-1" x1="164.14" y1="32.89" x2="0.75" y2="32.89"/><line id="svg_704" data-name="svg 704" class="cls-1" x1="0.75" y1="20.31" x2="0.75" y2="32.89"/><line id="svg_705" data-name="svg 705" class="cls-1" x1="176.71" y1="21.01" x2="164.14" y2="32.89"/><line id="svg_706" data-name="svg 706" class="cls-1" x1="177.67" y1="20.31" x2="0.75" y2="20.31"/><line id="svg_707" data-name="svg 707" class="cls-1" x1="164.14" y1="32.89" x2="0.75" y2="32.89"/><line id="svg_708" data-name="svg 708" class="cls-1" x1="0.75" y1="20.31" x2="0.75" y2="32.89"/><line id="svg_709" data-name="svg 709" class="cls-1" x1="176.71" y1="21.01" x2="164.14" y2="32.89"/></g><g id="svg_775" data-name="svg 775"><line id="svg_711" data-name="svg 711" class="cls-1" x1="155.02" y1="39.17" x2="0.75" y2="39.17"/><line id="svg_712" data-name="svg 712" class="cls-1" x1="143.22" y1="51.75" x2="0.75" y2="51.75"/><line id="svg_713" data-name="svg 713" class="cls-1" x1="0.75" y1="39.17" x2="0.75" y2="51.75"/><line id="svg_714" data-name="svg 714" class="cls-1" x1="154.18" y1="39.87" x2="143.22" y2="51.75"/><line id="svg_715" data-name="svg 715" class="cls-1" x1="155.02" y1="39.17" x2="0.75" y2="39.17"/><line id="svg_716" data-name="svg 716" class="cls-1" x1="143.22" y1="51.75" x2="0.75" y2="51.75"/><line id="svg_717" data-name="svg 717" class="cls-1" x1="0.75" y1="39.17" x2="0.75" y2="51.75"/><line id="svg_718" data-name="svg 718" class="cls-1" x1="154.18" y1="39.87" x2="143.22" y2="51.75"/><line id="svg_719" data-name="svg 719" class="cls-1" x1="155.02" y1="39.17" x2="0.75" y2="39.17"/><line id="svg_720" data-name="svg 720" class="cls-1" x1="143.22" y1="51.75" x2="0.75" y2="51.75"/><line id="svg_721" data-name="svg 721" class="cls-1" x1="0.75" y1="39.17" x2="0.75" y2="51.75"/><line id="svg_722" data-name="svg 722" class="cls-1" x1="154.18" y1="39.87" x2="143.22" y2="51.75"/><line id="svg_723" data-name="svg 723" class="cls-1" x1="155.02" y1="39.17" x2="0.75" y2="39.17"/><line id="svg_724" data-name="svg 724" class="cls-1" x1="143.22" y1="51.75" x2="0.75" y2="51.75"/><line id="svg_725" data-name="svg 725" class="cls-1" x1="0.75" y1="39.17" x2="0.75" y2="51.75"/><line id="svg_726" data-name="svg 726" class="cls-1" x1="154.18" y1="39.87" x2="143.22" y2="51.75"/><line id="svg_727" data-name="svg 727" class="cls-1" x1="155.02" y1="39.17" x2="0.75" y2="39.17"/><line id="svg_728" data-name="svg 728" class="cls-1" x1="143.22" y1="51.75" x2="0.75" y2="51.75"/><line id="svg_729" data-name="svg 729" class="cls-1" x1="0.75" y1="39.17" x2="0.75" y2="51.75"/><line id="svg_730" data-name="svg 730" class="cls-1" x1="154.18" y1="39.87" x2="143.22" y2="51.75"/><line id="svg_731" data-name="svg 731" class="cls-1" x1="155.02" y1="39.17" x2="0.75" y2="39.17"/><line id="svg_732" data-name="svg 732" class="cls-1" x1="143.22" y1="51.75" x2="0.75" y2="51.75"/><line id="svg_733" data-name="svg 733" class="cls-1" x1="0.75" y1="39.17" x2="0.75" y2="51.75"/><line id="svg_734" data-name="svg 734" class="cls-1" x1="154.18" y1="39.87" x2="143.22" y2="51.75"/><line id="svg_735" data-name="svg 735" class="cls-1" x1="155.02" y1="39.17" x2="0.75" y2="39.17"/><line id="svg_736" data-name="svg 736" class="cls-1" x1="143.22" y1="51.75" x2="0.75" y2="51.75"/><line id="svg_737" data-name="svg 737" class="cls-1" x1="0.75" y1="39.17" x2="0.75" y2="51.75"/><line id="svg_738" data-name="svg 738" class="cls-1" x1="154.18" y1="39.87" x2="143.22" y2="51.75"/><line id="svg_739" data-name="svg 739" class="cls-1" x1="155.02" y1="39.17" x2="0.75" y2="39.17"/><line id="svg_740" data-name="svg 740" class="cls-1" x1="143.22" y1="51.75" x2="0.75" y2="51.75"/><line id="svg_741" data-name="svg 741" class="cls-1" x1="0.75" y1="39.17" x2="0.75" y2="51.75"/><line id="svg_742" data-name="svg 742" class="cls-1" x1="154.18" y1="39.87" x2="143.22" y2="51.75"/><line id="svg_743" data-name="svg 743" class="cls-1" x1="155.02" y1="39.17" x2="0.75" y2="39.17"/><line id="svg_744" data-name="svg 744" class="cls-1" x1="143.22" y1="51.75" x2="0.75" y2="51.75"/><line id="svg_745" data-name="svg 745" class="cls-1" x1="0.75" y1="39.17" x2="0.75" y2="51.75"/><line id="svg_746" data-name="svg 746" class="cls-1" x1="154.18" y1="39.87" x2="143.22" y2="51.75"/><line id="svg_747" data-name="svg 747" class="cls-1" x1="155.02" y1="39.17" x2="0.75" y2="39.17"/><line id="svg_748" data-name="svg 748" class="cls-1" x1="143.22" y1="51.75" x2="0.75" y2="51.75"/><line id="svg_749" data-name="svg 749" class="cls-1" x1="0.75" y1="39.17" x2="0.75" y2="51.75"/><line id="svg_750" data-name="svg 750" class="cls-1" x1="154.18" y1="39.87" x2="143.22" y2="51.75"/><line id="svg_751" data-name="svg 751" class="cls-1" x1="155.02" y1="39.17" x2="0.75" y2="39.17"/><line id="svg_752" data-name="svg 752" class="cls-1" x1="143.22" y1="51.75" x2="0.75" y2="51.75"/><line id="svg_753" data-name="svg 753" class="cls-1" x1="0.75" y1="39.17" x2="0.75" y2="51.75"/><line id="svg_754" data-name="svg 754" class="cls-1" x1="154.18" y1="39.87" x2="143.22" y2="51.75"/><line id="svg_755" data-name="svg 755" class="cls-1" x1="155.02" y1="39.17" x2="0.75" y2="39.17"/><line id="svg_756" data-name="svg 756" class="cls-1" x1="143.22" y1="51.75" x2="0.75" y2="51.75"/><line id="svg_757" data-name="svg 757" class="cls-1" x1="0.75" y1="39.17" x2="0.75" y2="51.75"/><line id="svg_758" data-name="svg 758" class="cls-1" x1="154.18" y1="39.87" x2="143.22" y2="51.75"/><line id="svg_759" data-name="svg 759" class="cls-1" x1="155.02" y1="39.17" x2="0.75" y2="39.17"/><line id="svg_760" data-name="svg 760" class="cls-1" x1="143.22" y1="51.75" x2="0.75" y2="51.75"/><line id="svg_761" data-name="svg 761" class="cls-1" x1="0.75" y1="39.17" x2="0.75" y2="51.75"/><line id="svg_762" data-name="svg 762" class="cls-1" x1="154.18" y1="39.87" x2="143.22" y2="51.75"/><line id="svg_763" data-name="svg 763" class="cls-1" x1="155.02" y1="39.17" x2="0.75" y2="39.17"/><line id="svg_764" data-name="svg 764" class="cls-1" x1="143.22" y1="51.75" x2="0.75" y2="51.75"/><line id="svg_765" data-name="svg 765" class="cls-1" x1="0.75" y1="39.17" x2="0.75" y2="51.75"/><line id="svg_766" data-name="svg 766" class="cls-1" x1="154.18" y1="39.87" x2="143.22" y2="51.75"/><line id="svg_767" data-name="svg 767" class="cls-1" x1="155.02" y1="39.17" x2="0.75" y2="39.17"/><line id="svg_768" data-name="svg 768" class="cls-1" x1="143.22" y1="51.75" x2="0.75" y2="51.75"/><line id="svg_769" data-name="svg 769" class="cls-1" x1="0.75" y1="39.17" x2="0.75" y2="51.75"/><line id="svg_770" data-name="svg 770" class="cls-1" x1="154.18" y1="39.87" x2="143.22" y2="51.75"/><line id="svg_771" data-name="svg 771" class="cls-1" x1="155.02" y1="39.17" x2="0.75" y2="39.17"/><line id="svg_772" data-name="svg 772" class="cls-1" x1="143.22" y1="51.75" x2="0.75" y2="51.75"/><line id="svg_773" data-name="svg 773" class="cls-1" x1="0.75" y1="39.17" x2="0.75" y2="51.75"/><line id="svg_774" data-name="svg 774" class="cls-1" x1="154.18" y1="39.87" x2="143.22" y2="51.75"/></g><g id="svg_840" data-name="svg 840"><line id="svg_776" data-name="svg 776" class="cls-1" x1="177.67" y1="20.31" x2="0.75" y2="20.31"/><line id="svg_777" data-name="svg 777" class="cls-1" x1="164.14" y1="32.89" x2="0.75" y2="32.89"/><line id="svg_778" data-name="svg 778" class="cls-1" x1="0.75" y1="20.31" x2="0.75" y2="32.89"/><line id="svg_779" data-name="svg 779" class="cls-1" x1="176.71" y1="21.01" x2="164.14" y2="32.89"/><line id="svg_780" data-name="svg 780" class="cls-1" x1="177.67" y1="20.31" x2="0.75" y2="20.31"/><line id="svg_781" data-name="svg 781" class="cls-1" x1="164.14" y1="32.89" x2="0.75" y2="32.89"/><line id="svg_782" data-name="svg 782" class="cls-1" x1="0.75" y1="20.31" x2="0.75" y2="32.89"/><line id="svg_783" data-name="svg 783" class="cls-1" x1="176.71" y1="21.01" x2="164.14" y2="32.89"/><line id="svg_784" data-name="svg 784" class="cls-1" x1="177.67" y1="20.31" x2="0.75" y2="20.31"/><line id="svg_785" data-name="svg 785" class="cls-1" x1="164.14" y1="32.89" x2="0.75" y2="32.89"/><line id="svg_786" data-name="svg 786" class="cls-1" x1="0.75" y1="20.31" x2="0.75" y2="32.89"/><line id="svg_787" data-name="svg 787" class="cls-1" x1="176.71" y1="21.01" x2="164.14" y2="32.89"/><line id="svg_788" data-name="svg 788" class="cls-1" x1="177.67" y1="20.31" x2="0.75" y2="20.31"/><line id="svg_789" data-name="svg 789" class="cls-1" x1="164.14" y1="32.89" x2="0.75" y2="32.89"/><line id="svg_790" data-name="svg 790" class="cls-1" x1="0.75" y1="20.31" x2="0.75" y2="32.89"/><line id="svg_791" data-name="svg 791" class="cls-1" x1="176.71" y1="21.01" x2="164.14" y2="32.89"/><line id="svg_792" data-name="svg 792" class="cls-1" x1="177.67" y1="20.31" x2="0.75" y2="20.31"/><line id="svg_793" data-name="svg 793" class="cls-1" x1="164.14" y1="32.89" x2="0.75" y2="32.89"/><line id="svg_794" data-name="svg 794" class="cls-1" x1="0.75" y1="20.31" x2="0.75" y2="32.89"/><line id="svg_795" data-name="svg 795" class="cls-1" x1="176.71" y1="21.01" x2="164.14" y2="32.89"/><line id="svg_796" data-name="svg 796" class="cls-1" x1="177.67" y1="20.31" x2="0.75" y2="20.31"/><line id="svg_797" data-name="svg 797" class="cls-1" x1="164.14" y1="32.89" x2="0.75" y2="32.89"/><line id="svg_798" data-name="svg 798" class="cls-1" x1="0.75" y1="20.31" x2="0.75" y2="32.89"/><line id="svg_799" data-name="svg 799" class="cls-1" x1="176.71" y1="21.01" x2="164.14" y2="32.89"/><line id="svg_800" data-name="svg 800" class="cls-1" x1="177.67" y1="20.31" x2="0.75" y2="20.31"/><line id="svg_801" data-name="svg 801" class="cls-1" x1="164.14" y1="32.89" x2="0.75" y2="32.89"/><line id="svg_802" data-name="svg 802" class="cls-1" x1="0.75" y1="20.31" x2="0.75" y2="32.89"/><line id="svg_803" data-name="svg 803" class="cls-1" x1="176.71" y1="21.01" x2="164.14" y2="32.89"/><line id="svg_804" data-name="svg 804" class="cls-1" x1="177.67" y1="20.31" x2="0.75" y2="20.31"/><line id="svg_805" data-name="svg 805" class="cls-1" x1="164.14" y1="32.89" x2="0.75" y2="32.89"/><line id="svg_806" data-name="svg 806" class="cls-1" x1="0.75" y1="20.31" x2="0.75" y2="32.89"/><line id="svg_807" data-name="svg 807" class="cls-1" x1="176.71" y1="21.01" x2="164.14" y2="32.89"/><line id="svg_808" data-name="svg 808" class="cls-1" x1="177.67" y1="20.31" x2="0.75" y2="20.31"/><line id="svg_809" data-name="svg 809" class="cls-1" x1="164.14" y1="32.89" x2="0.75" y2="32.89"/><line id="svg_810" data-name="svg 810" class="cls-1" x1="0.75" y1="20.31" x2="0.75" y2="32.89"/><line id="svg_811" data-name="svg 811" class="cls-1" x1="176.71" y1="21.01" x2="164.14" y2="32.89"/><line id="svg_812" data-name="svg 812" class="cls-1" x1="177.67" y1="20.31" x2="0.75" y2="20.31"/><line id="svg_813" data-name="svg 813" class="cls-1" x1="164.14" y1="32.89" x2="0.75" y2="32.89"/><line id="svg_814" data-name="svg 814" class="cls-1" x1="0.75" y1="20.31" x2="0.75" y2="32.89"/><line id="svg_815" data-name="svg 815" class="cls-1" x1="176.71" y1="21.01" x2="164.14" y2="32.89"/><line id="svg_816" data-name="svg 816" class="cls-1" x1="177.67" y1="20.31" x2="0.75" y2="20.31"/><line id="svg_817" data-name="svg 817" class="cls-1" x1="164.14" y1="32.89" x2="0.75" y2="32.89"/><line id="svg_818" data-name="svg 818" class="cls-1" x1="0.75" y1="20.31" x2="0.75" y2="32.89"/><line id="svg_819" data-name="svg 819" class="cls-1" x1="176.71" y1="21.01" x2="164.14" y2="32.89"/><line id="svg_820" data-name="svg 820" class="cls-1" x1="177.67" y1="20.31" x2="0.75" y2="20.31"/><line id="svg_821" data-name="svg 821" class="cls-1" x1="164.14" y1="32.89" x2="0.75" y2="32.89"/><line id="svg_822" data-name="svg 822" class="cls-1" x1="0.75" y1="20.31" x2="0.75" y2="32.89"/><line id="svg_823" data-name="svg 823" class="cls-1" x1="176.71" y1="21.01" x2="164.14" y2="32.89"/><line id="svg_824" data-name="svg 824" class="cls-1" x1="177.67" y1="20.31" x2="0.75" y2="20.31"/><line id="svg_825" data-name="svg 825" class="cls-1" x1="164.14" y1="32.89" x2="0.75" y2="32.89"/><line id="svg_826" data-name="svg 826" class="cls-1" x1="0.75" y1="20.31" x2="0.75" y2="32.89"/><line id="svg_827" data-name="svg 827" class="cls-1" x1="176.71" y1="21.01" x2="164.14" y2="32.89"/><line id="svg_828" data-name="svg 828" class="cls-1" x1="177.67" y1="20.31" x2="0.75" y2="20.31"/><line id="svg_829" data-name="svg 829" class="cls-1" x1="164.14" y1="32.89" x2="0.75" y2="32.89"/><line id="svg_830" data-name="svg 830" class="cls-1" x1="0.75" y1="20.31" x2="0.75" y2="32.89"/><line id="svg_831" data-name="svg 831" class="cls-1" x1="176.71" y1="21.01" x2="164.14" y2="32.89"/><line id="svg_832" data-name="svg 832" class="cls-1" x1="177.67" y1="20.31" x2="0.75" y2="20.31"/><line id="svg_833" data-name="svg 833" class="cls-1" x1="164.14" y1="32.89" x2="0.75" y2="32.89"/><line id="svg_834" data-name="svg 834" class="cls-1" x1="0.75" y1="20.31" x2="0.75" y2="32.89"/><line id="svg_835" data-name="svg 835" class="cls-1" x1="176.71" y1="21.01" x2="164.14" y2="32.89"/><line id="svg_836" data-name="svg 836" class="cls-1" x1="177.67" y1="20.31" x2="0.75" y2="20.31"/><line id="svg_837" data-name="svg 837" class="cls-1" x1="164.14" y1="32.89" x2="0.75" y2="32.89"/><line id="svg_838" data-name="svg 838" class="cls-1" x1="0.75" y1="20.31" x2="0.75" y2="32.89"/><line id="svg_839" data-name="svg 839" class="cls-1" x1="176.71" y1="21.01" x2="164.14" y2="32.89"/></g></g></svg>