<?xml version="1.0" encoding="utf-8"?>
<!-- Generator: Adobe Illustrator 23.0.4, SVG Export Plug-In . SVG Version: 6.00 Build 0)  -->
<svg version="1.1" id="Layer_1" xmlns="http://www.w3.org/2000/svg" xmlns:xlink="http://www.w3.org/1999/xlink" x="0px" y="0px"
	 viewBox="0 0 580 400" style="enable-background:new 0 0 580 400;" xml:space="preserve">
<style type="text/css">
	.st0{fill:none;stroke:#000000;stroke-width:1.5;}
</style>
<g>
	<title  stroke="null">Layer 1</title>
	<g id="svg_581">
		<line id="svg_582" class="st0" x1="396" y1="169.4" x2="198.6" y2="169.4"/>
		<line id="svg_583" class="st0" x1="380.9" y1="182" x2="198.6" y2="182"/>
		<line id="svg_584" class="st0" x1="198.6" y1="169.4" x2="198.6" y2="182"/>
		<line id="svg_585" class="st0" x1="395.4" y1="170.1" x2="381.4" y2="182"/>
		<line id="svg_586" class="st0" x1="396" y1="169.4" x2="198.6" y2="169.4"/>
		<line id="svg_587" class="st0" x1="380.9" y1="182" x2="198.6" y2="182"/>
		<line id="svg_588" class="st0" x1="198.6" y1="169.4" x2="198.6" y2="182"/>
		<line id="svg_589" class="st0" x1="395.4" y1="170.1" x2="381.4" y2="182"/>
		<line id="svg_590" class="st0" x1="396" y1="169.4" x2="198.6" y2="169.4"/>
		<line id="svg_591" class="st0" x1="380.9" y1="182" x2="198.6" y2="182"/>
		<line id="svg_592" class="st0" x1="198.6" y1="169.4" x2="198.6" y2="182"/>
		<line id="svg_593" class="st0" x1="395.4" y1="170.1" x2="381.4" y2="182"/>
		<line id="svg_594" class="st0" x1="396" y1="169.4" x2="198.6" y2="169.4"/>
		<line id="svg_595" class="st0" x1="380.9" y1="182" x2="198.6" y2="182"/>
		<line id="svg_596" class="st0" x1="198.6" y1="169.4" x2="198.6" y2="182"/>
		<line id="svg_597" class="st0" x1="395.4" y1="170.1" x2="381.4" y2="182"/>
		<line id="svg_598" class="st0" x1="396" y1="169.4" x2="198.6" y2="169.4"/>
		<line id="svg_599" class="st0" x1="380.9" y1="182" x2="198.6" y2="182"/>
		<line id="svg_600" class="st0" x1="198.6" y1="169.4" x2="198.6" y2="182"/>
		<line id="svg_601" class="st0" x1="395.4" y1="170.1" x2="381.4" y2="182"/>
		<line id="svg_602" class="st0" x1="396" y1="169.4" x2="198.6" y2="169.4"/>
		<line id="svg_603" class="st0" x1="380.9" y1="182" x2="198.6" y2="182"/>
		<line id="svg_604" class="st0" x1="198.6" y1="169.4" x2="198.6" y2="182"/>
		<line id="svg_605" class="st0" x1="395.4" y1="170.1" x2="381.4" y2="182"/>
		<line id="svg_606" class="st0" x1="396" y1="169.4" x2="198.6" y2="169.4"/>
		<line id="svg_607" class="st0" x1="380.9" y1="182" x2="198.6" y2="182"/>
		<line id="svg_608" class="st0" x1="198.6" y1="169.4" x2="198.6" y2="182"/>
		<line id="svg_609" class="st0" x1="395.4" y1="170.1" x2="381.4" y2="182"/>
		<line id="svg_610" class="st0" x1="396" y1="169.4" x2="198.6" y2="169.4"/>
		<line id="svg_611" class="st0" x1="380.9" y1="182" x2="198.6" y2="182"/>
		<line id="svg_612" class="st0" x1="198.6" y1="169.4" x2="198.6" y2="182"/>
		<line id="svg_613" class="st0" x1="395.4" y1="170.1" x2="381.4" y2="182"/>
		<line id="svg_614" class="st0" x1="396" y1="169.4" x2="198.6" y2="169.4"/>
		<line id="svg_615" class="st0" x1="380.9" y1="182" x2="198.6" y2="182"/>
		<line id="svg_616" class="st0" x1="198.6" y1="169.4" x2="198.6" y2="182"/>
		<line id="svg_617" class="st0" x1="395.4" y1="170.1" x2="381.4" y2="182"/>
		<line id="svg_618" class="st0" x1="396" y1="169.4" x2="198.6" y2="169.4"/>
		<line id="svg_619" class="st0" x1="380.9" y1="182" x2="198.6" y2="182"/>
		<line id="svg_620" class="st0" x1="198.6" y1="169.4" x2="198.6" y2="182"/>
		<line id="svg_621" class="st0" x1="395.4" y1="170.1" x2="381.4" y2="182"/>
		<line id="svg_622" class="st0" x1="396" y1="169.4" x2="198.6" y2="169.4"/>
		<line id="svg_623" class="st0" x1="380.9" y1="182" x2="198.6" y2="182"/>
		<line id="svg_624" class="st0" x1="198.6" y1="169.4" x2="198.6" y2="182"/>
		<line id="svg_625" class="st0" x1="395.4" y1="170.1" x2="381.4" y2="182"/>
		<line id="svg_626" class="st0" x1="396" y1="169.4" x2="198.6" y2="169.4"/>
		<line id="svg_627" class="st0" x1="380.9" y1="182" x2="198.6" y2="182"/>
		<line id="svg_628" class="st0" x1="198.6" y1="169.4" x2="198.6" y2="182"/>
		<line id="svg_629" class="st0" x1="395.4" y1="170.1" x2="381.4" y2="182"/>
		<line id="svg_630" class="st0" x1="396" y1="169.4" x2="198.6" y2="169.4"/>
		<line id="svg_631" class="st0" x1="380.9" y1="182" x2="198.6" y2="182"/>
		<line id="svg_632" class="st0" x1="198.6" y1="169.4" x2="198.6" y2="182"/>
		<line id="svg_633" class="st0" x1="395.4" y1="170.1" x2="381.4" y2="182"/>
		<line id="svg_634" class="st0" x1="396" y1="169.4" x2="198.6" y2="169.4"/>
		<line id="svg_635" class="st0" x1="380.9" y1="182" x2="198.6" y2="182"/>
		<line id="svg_636" class="st0" x1="198.6" y1="169.4" x2="198.6" y2="182"/>
		<line id="svg_637" class="st0" x1="395.4" y1="170.1" x2="381.4" y2="182"/>
		<line id="svg_638" class="st0" x1="396" y1="169.4" x2="198.6" y2="169.4"/>
		<line id="svg_639" class="st0" x1="380.9" y1="182" x2="198.6" y2="182"/>
		<line id="svg_640" class="st0" x1="198.6" y1="169.4" x2="198.6" y2="182"/>
		<line id="svg_641" class="st0" x1="395.4" y1="170.1" x2="381.4" y2="182"/>
		<line id="svg_642" class="st0" x1="396" y1="169.4" x2="198.6" y2="169.4"/>
		<line id="svg_643" class="st0" x1="380.9" y1="182" x2="198.6" y2="182"/>
		<line id="svg_644" class="st0" x1="198.6" y1="169.4" x2="198.6" y2="182"/>
		<line id="svg_645" class="st0" x1="395.4" y1="170.1" x2="381.4" y2="182"/>
		<g id="svg_710">
			<line id="svg_646" class="st0" x1="374.9" y1="189" x2="198" y2="189"/>
			<line id="svg_647" class="st0" x1="361.3" y1="201.6" x2="198" y2="201.6"/>
			<line id="svg_648" class="st0" x1="198" y1="189" x2="198" y2="201.6"/>
			<line id="svg_649" class="st0" x1="373.9" y1="189.7" x2="361.3" y2="201.6"/>
			<line id="svg_650" class="st0" x1="374.9" y1="189" x2="198" y2="189"/>
			<line id="svg_651" class="st0" x1="361.3" y1="201.6" x2="198" y2="201.6"/>
			<line id="svg_652" class="st0" x1="198" y1="189" x2="198" y2="201.6"/>
			<line id="svg_653" class="st0" x1="373.9" y1="189.7" x2="361.3" y2="201.6"/>
			<line id="svg_654" class="st0" x1="374.9" y1="189" x2="198" y2="189"/>
			<line id="svg_655" class="st0" x1="361.3" y1="201.6" x2="198" y2="201.6"/>
			<line id="svg_656" class="st0" x1="198" y1="189" x2="198" y2="201.6"/>
			<line id="svg_657" class="st0" x1="373.9" y1="189.7" x2="361.3" y2="201.6"/>
			<line id="svg_658" class="st0" x1="374.9" y1="189" x2="198" y2="189"/>
			<line id="svg_659" class="st0" x1="361.3" y1="201.6" x2="198" y2="201.6"/>
			<line id="svg_660" class="st0" x1="198" y1="189" x2="198" y2="201.6"/>
			<line id="svg_661" class="st0" x1="373.9" y1="189.7" x2="361.3" y2="201.6"/>
			<line id="svg_662" class="st0" x1="374.9" y1="189" x2="198" y2="189"/>
			<line id="svg_663" class="st0" x1="361.3" y1="201.6" x2="198" y2="201.6"/>
			<line id="svg_664" class="st0" x1="198" y1="189" x2="198" y2="201.6"/>
			<line id="svg_665" class="st0" x1="373.9" y1="189.7" x2="361.3" y2="201.6"/>
			<line id="svg_666" class="st0" x1="374.9" y1="189" x2="198" y2="189"/>
			<line id="svg_667" class="st0" x1="361.3" y1="201.6" x2="198" y2="201.6"/>
			<line id="svg_668" class="st0" x1="198" y1="189" x2="198" y2="201.6"/>
			<line id="svg_669" class="st0" x1="373.9" y1="189.7" x2="361.3" y2="201.6"/>
			<line id="svg_670" class="st0" x1="374.9" y1="189" x2="198" y2="189"/>
			<line id="svg_671" class="st0" x1="361.3" y1="201.6" x2="198" y2="201.6"/>
			<line id="svg_672" class="st0" x1="198" y1="189" x2="198" y2="201.6"/>
			<line id="svg_673" class="st0" x1="373.9" y1="189.7" x2="361.3" y2="201.6"/>
			<line id="svg_674" class="st0" x1="374.9" y1="189" x2="198" y2="189"/>
			<line id="svg_675" class="st0" x1="361.3" y1="201.6" x2="198" y2="201.6"/>
			<line id="svg_676" class="st0" x1="198" y1="189" x2="198" y2="201.6"/>
			<line id="svg_677" class="st0" x1="373.9" y1="189.7" x2="361.3" y2="201.6"/>
			<line id="svg_678" class="st0" x1="374.9" y1="189" x2="198" y2="189"/>
			<line id="svg_679" class="st0" x1="361.3" y1="201.6" x2="198" y2="201.6"/>
			<line id="svg_680" class="st0" x1="198" y1="189" x2="198" y2="201.6"/>
			<line id="svg_681" class="st0" x1="373.9" y1="189.7" x2="361.3" y2="201.6"/>
			<line id="svg_682" class="st0" x1="374.9" y1="189" x2="198" y2="189"/>
			<line id="svg_683" class="st0" x1="361.3" y1="201.6" x2="198" y2="201.6"/>
			<line id="svg_684" class="st0" x1="198" y1="189" x2="198" y2="201.6"/>
			<line id="svg_685" class="st0" x1="373.9" y1="189.7" x2="361.3" y2="201.6"/>
			<line id="svg_686" class="st0" x1="374.9" y1="189" x2="198" y2="189"/>
			<line id="svg_687" class="st0" x1="361.3" y1="201.6" x2="198" y2="201.6"/>
			<line id="svg_688" class="st0" x1="198" y1="189" x2="198" y2="201.6"/>
			<line id="svg_689" class="st0" x1="373.9" y1="189.7" x2="361.3" y2="201.6"/>
			<line id="svg_690" class="st0" x1="374.9" y1="189" x2="198" y2="189"/>
			<line id="svg_691" class="st0" x1="361.3" y1="201.6" x2="198" y2="201.6"/>
			<line id="svg_692" class="st0" x1="198" y1="189" x2="198" y2="201.6"/>
			<line id="svg_693" class="st0" x1="373.9" y1="189.7" x2="361.3" y2="201.6"/>
			<line id="svg_694" class="st0" x1="374.9" y1="189" x2="198" y2="189"/>
			<line id="svg_695" class="st0" x1="361.3" y1="201.6" x2="198" y2="201.6"/>
			<line id="svg_696" class="st0" x1="198" y1="189" x2="198" y2="201.6"/>
			<line id="svg_697" class="st0" x1="373.9" y1="189.7" x2="361.3" y2="201.6"/>
			<line id="svg_698" class="st0" x1="374.9" y1="189" x2="198" y2="189"/>
			<line id="svg_699" class="st0" x1="361.3" y1="201.6" x2="198" y2="201.6"/>
			<line id="svg_700" class="st0" x1="198" y1="189" x2="198" y2="201.6"/>
			<line id="svg_701" class="st0" x1="373.9" y1="189.7" x2="361.3" y2="201.6"/>
			<line id="svg_702" class="st0" x1="374.9" y1="189" x2="198" y2="189"/>
			<line id="svg_703" class="st0" x1="361.3" y1="201.6" x2="198" y2="201.6"/>
			<line id="svg_704" class="st0" x1="198" y1="189" x2="198" y2="201.6"/>
			<line id="svg_705" class="st0" x1="373.9" y1="189.7" x2="361.3" y2="201.6"/>
			<line id="svg_706" class="st0" x1="374.9" y1="189" x2="198" y2="189"/>
			<line id="svg_707" class="st0" x1="361.3" y1="201.6" x2="198" y2="201.6"/>
			<line id="svg_708" class="st0" x1="198" y1="189" x2="198" y2="201.6"/>
			<line id="svg_709" class="st0" x1="373.9" y1="189.7" x2="361.3" y2="201.6"/>
		</g>
		<g id="svg_775">
			<line id="svg_711" class="st0" x1="352.2" y1="207.9" x2="198" y2="207.9"/>
			<line id="svg_712" class="st0" x1="340.4" y1="220.4" x2="198" y2="220.4"/>
			<line id="svg_713" class="st0" x1="198" y1="207.9" x2="198" y2="220.4"/>
			<line id="svg_714" class="st0" x1="351.4" y1="208.6" x2="340.4" y2="220.4"/>
			<line id="svg_715" class="st0" x1="352.2" y1="207.9" x2="198" y2="207.9"/>
			<line id="svg_716" class="st0" x1="340.4" y1="220.4" x2="198" y2="220.4"/>
			<line id="svg_717" class="st0" x1="198" y1="207.9" x2="198" y2="220.4"/>
			<line id="svg_718" class="st0" x1="351.4" y1="208.6" x2="340.4" y2="220.4"/>
			<line id="svg_719" class="st0" x1="352.2" y1="207.9" x2="198" y2="207.9"/>
			<line id="svg_720" class="st0" x1="340.4" y1="220.4" x2="198" y2="220.4"/>
			<line id="svg_721" class="st0" x1="198" y1="207.9" x2="198" y2="220.4"/>
			<line id="svg_722" class="st0" x1="351.4" y1="208.6" x2="340.4" y2="220.4"/>
			<line id="svg_723" class="st0" x1="352.2" y1="207.9" x2="198" y2="207.9"/>
			<line id="svg_724" class="st0" x1="340.4" y1="220.4" x2="198" y2="220.4"/>
			<line id="svg_725" class="st0" x1="198" y1="207.9" x2="198" y2="220.4"/>
			<line id="svg_726" class="st0" x1="351.4" y1="208.6" x2="340.4" y2="220.4"/>
			<line id="svg_727" class="st0" x1="352.2" y1="207.9" x2="198" y2="207.9"/>
			<line id="svg_728" class="st0" x1="340.4" y1="220.4" x2="198" y2="220.4"/>
			<line id="svg_729" class="st0" x1="198" y1="207.9" x2="198" y2="220.4"/>
			<line id="svg_730" class="st0" x1="351.4" y1="208.6" x2="340.4" y2="220.4"/>
			<line id="svg_731" class="st0" x1="352.2" y1="207.9" x2="198" y2="207.9"/>
			<line id="svg_732" class="st0" x1="340.4" y1="220.4" x2="198" y2="220.4"/>
			<line id="svg_733" class="st0" x1="198" y1="207.9" x2="198" y2="220.4"/>
			<line id="svg_734" class="st0" x1="351.4" y1="208.6" x2="340.4" y2="220.4"/>
			<line id="svg_735" class="st0" x1="352.2" y1="207.9" x2="198" y2="207.9"/>
			<line id="svg_736" class="st0" x1="340.4" y1="220.4" x2="198" y2="220.4"/>
			<line id="svg_737" class="st0" x1="198" y1="207.9" x2="198" y2="220.4"/>
			<line id="svg_738" class="st0" x1="351.4" y1="208.6" x2="340.4" y2="220.4"/>
			<line id="svg_739" class="st0" x1="352.2" y1="207.9" x2="198" y2="207.9"/>
			<line id="svg_740" class="st0" x1="340.4" y1="220.4" x2="198" y2="220.4"/>
			<line id="svg_741" class="st0" x1="198" y1="207.9" x2="198" y2="220.4"/>
			<line id="svg_742" class="st0" x1="351.4" y1="208.6" x2="340.4" y2="220.4"/>
			<line id="svg_743" class="st0" x1="352.2" y1="207.9" x2="198" y2="207.9"/>
			<line id="svg_744" class="st0" x1="340.4" y1="220.4" x2="198" y2="220.4"/>
			<line id="svg_745" class="st0" x1="198" y1="207.9" x2="198" y2="220.4"/>
			<line id="svg_746" class="st0" x1="351.4" y1="208.6" x2="340.4" y2="220.4"/>
			<line id="svg_747" class="st0" x1="352.2" y1="207.9" x2="198" y2="207.9"/>
			<line id="svg_748" class="st0" x1="340.4" y1="220.4" x2="198" y2="220.4"/>
			<line id="svg_749" class="st0" x1="198" y1="207.9" x2="198" y2="220.4"/>
			<line id="svg_750" class="st0" x1="351.4" y1="208.6" x2="340.4" y2="220.4"/>
			<line id="svg_751" class="st0" x1="352.2" y1="207.9" x2="198" y2="207.9"/>
			<line id="svg_752" class="st0" x1="340.4" y1="220.4" x2="198" y2="220.4"/>
			<line id="svg_753" class="st0" x1="198" y1="207.9" x2="198" y2="220.4"/>
			<line id="svg_754" class="st0" x1="351.4" y1="208.6" x2="340.4" y2="220.4"/>
			<line id="svg_755" class="st0" x1="352.2" y1="207.9" x2="198" y2="207.9"/>
			<line id="svg_756" class="st0" x1="340.4" y1="220.4" x2="198" y2="220.4"/>
			<line id="svg_757" class="st0" x1="198" y1="207.9" x2="198" y2="220.4"/>
			<line id="svg_758" class="st0" x1="351.4" y1="208.6" x2="340.4" y2="220.4"/>
			<line id="svg_759" class="st0" x1="352.2" y1="207.9" x2="198" y2="207.9"/>
			<line id="svg_760" class="st0" x1="340.4" y1="220.4" x2="198" y2="220.4"/>
			<line id="svg_761" class="st0" x1="198" y1="207.9" x2="198" y2="220.4"/>
			<line id="svg_762" class="st0" x1="351.4" y1="208.6" x2="340.4" y2="220.4"/>
			<line id="svg_763" class="st0" x1="352.2" y1="207.9" x2="198" y2="207.9"/>
			<line id="svg_764" class="st0" x1="340.4" y1="220.4" x2="198" y2="220.4"/>
			<line id="svg_765" class="st0" x1="198" y1="207.9" x2="198" y2="220.4"/>
			<line id="svg_766" class="st0" x1="351.4" y1="208.6" x2="340.4" y2="220.4"/>
			<line id="svg_767" class="st0" x1="352.2" y1="207.9" x2="198" y2="207.9"/>
			<line id="svg_768" class="st0" x1="340.4" y1="220.4" x2="198" y2="220.4"/>
			<line id="svg_769" class="st0" x1="198" y1="207.9" x2="198" y2="220.4"/>
			<line id="svg_770" class="st0" x1="351.4" y1="208.6" x2="340.4" y2="220.4"/>
			<line id="svg_771" class="st0" x1="352.2" y1="207.9" x2="198" y2="207.9"/>
			<line id="svg_772" class="st0" x1="340.4" y1="220.4" x2="198" y2="220.4"/>
			<line id="svg_773" class="st0" x1="198" y1="207.9" x2="198" y2="220.4"/>
			<line id="svg_774" class="st0" x1="351.4" y1="208.6" x2="340.4" y2="220.4"/>
		</g>
		<g id="svg_840">
			<line id="svg_776" class="st0" x1="374.9" y1="189" x2="198" y2="189"/>
			<line id="svg_777" class="st0" x1="361.3" y1="201.6" x2="198" y2="201.6"/>
			<line id="svg_778" class="st0" x1="198" y1="189" x2="198" y2="201.6"/>
			<line id="svg_779" class="st0" x1="373.9" y1="189.7" x2="361.3" y2="201.6"/>
			<line id="svg_780" class="st0" x1="374.9" y1="189" x2="198" y2="189"/>
			<line id="svg_781" class="st0" x1="361.3" y1="201.6" x2="198" y2="201.6"/>
			<line id="svg_782" class="st0" x1="198" y1="189" x2="198" y2="201.6"/>
			<line id="svg_783" class="st0" x1="373.9" y1="189.7" x2="361.3" y2="201.6"/>
			<line id="svg_784" class="st0" x1="374.9" y1="189" x2="198" y2="189"/>
			<line id="svg_785" class="st0" x1="361.3" y1="201.6" x2="198" y2="201.6"/>
			<line id="svg_786" class="st0" x1="198" y1="189" x2="198" y2="201.6"/>
			<line id="svg_787" class="st0" x1="373.9" y1="189.7" x2="361.3" y2="201.6"/>
			<line id="svg_788" class="st0" x1="374.9" y1="189" x2="198" y2="189"/>
			<line id="svg_789" class="st0" x1="361.3" y1="201.6" x2="198" y2="201.6"/>
			<line id="svg_790" class="st0" x1="198" y1="189" x2="198" y2="201.6"/>
			<line id="svg_791" class="st0" x1="373.9" y1="189.7" x2="361.3" y2="201.6"/>
			<line id="svg_792" class="st0" x1="374.9" y1="189" x2="198" y2="189"/>
			<line id="svg_793" class="st0" x1="361.3" y1="201.6" x2="198" y2="201.6"/>
			<line id="svg_794" class="st0" x1="198" y1="189" x2="198" y2="201.6"/>
			<line id="svg_795" class="st0" x1="373.9" y1="189.7" x2="361.3" y2="201.6"/>
			<line id="svg_796" class="st0" x1="374.9" y1="189" x2="198" y2="189"/>
			<line id="svg_797" class="st0" x1="361.3" y1="201.6" x2="198" y2="201.6"/>
			<line id="svg_798" class="st0" x1="198" y1="189" x2="198" y2="201.6"/>
			<line id="svg_799" class="st0" x1="373.9" y1="189.7" x2="361.3" y2="201.6"/>
			<line id="svg_800" class="st0" x1="374.9" y1="189" x2="198" y2="189"/>
			<line id="svg_801" class="st0" x1="361.3" y1="201.6" x2="198" y2="201.6"/>
			<line id="svg_802" class="st0" x1="198" y1="189" x2="198" y2="201.6"/>
			<line id="svg_803" class="st0" x1="373.9" y1="189.7" x2="361.3" y2="201.6"/>
			<line id="svg_804" class="st0" x1="374.9" y1="189" x2="198" y2="189"/>
			<line id="svg_805" class="st0" x1="361.3" y1="201.6" x2="198" y2="201.6"/>
			<line id="svg_806" class="st0" x1="198" y1="189" x2="198" y2="201.6"/>
			<line id="svg_807" class="st0" x1="373.9" y1="189.7" x2="361.3" y2="201.6"/>
			<line id="svg_808" class="st0" x1="374.9" y1="189" x2="198" y2="189"/>
			<line id="svg_809" class="st0" x1="361.3" y1="201.6" x2="198" y2="201.6"/>
			<line id="svg_810" class="st0" x1="198" y1="189" x2="198" y2="201.6"/>
			<line id="svg_811" class="st0" x1="373.9" y1="189.7" x2="361.3" y2="201.6"/>
			<line id="svg_812" class="st0" x1="374.9" y1="189" x2="198" y2="189"/>
			<line id="svg_813" class="st0" x1="361.3" y1="201.6" x2="198" y2="201.6"/>
			<line id="svg_814" class="st0" x1="198" y1="189" x2="198" y2="201.6"/>
			<line id="svg_815" class="st0" x1="373.9" y1="189.7" x2="361.3" y2="201.6"/>
			<line id="svg_816" class="st0" x1="374.9" y1="189" x2="198" y2="189"/>
			<line id="svg_817" class="st0" x1="361.3" y1="201.6" x2="198" y2="201.6"/>
			<line id="svg_818" class="st0" x1="198" y1="189" x2="198" y2="201.6"/>
			<line id="svg_819" class="st0" x1="373.9" y1="189.7" x2="361.3" y2="201.6"/>
			<line id="svg_820" class="st0" x1="374.9" y1="189" x2="198" y2="189"/>
			<line id="svg_821" class="st0" x1="361.3" y1="201.6" x2="198" y2="201.6"/>
			<line id="svg_822" class="st0" x1="198" y1="189" x2="198" y2="201.6"/>
			<line id="svg_823" class="st0" x1="373.9" y1="189.7" x2="361.3" y2="201.6"/>
			<line id="svg_824" class="st0" x1="374.9" y1="189" x2="198" y2="189"/>
			<line id="svg_825" class="st0" x1="361.3" y1="201.6" x2="198" y2="201.6"/>
			<line id="svg_826" class="st0" x1="198" y1="189" x2="198" y2="201.6"/>
			<line id="svg_827" class="st0" x1="373.9" y1="189.7" x2="361.3" y2="201.6"/>
			<line id="svg_828" class="st0" x1="374.9" y1="189" x2="198" y2="189"/>
			<line id="svg_829" class="st0" x1="361.3" y1="201.6" x2="198" y2="201.6"/>
			<line id="svg_830" class="st0" x1="198" y1="189" x2="198" y2="201.6"/>
			<line id="svg_831" class="st0" x1="373.9" y1="189.7" x2="361.3" y2="201.6"/>
			<line id="svg_832" class="st0" x1="374.9" y1="189" x2="198" y2="189"/>
			<line id="svg_833" class="st0" x1="361.3" y1="201.6" x2="198" y2="201.6"/>
			<line id="svg_834" class="st0" x1="198" y1="189" x2="198" y2="201.6"/>
			<line id="svg_835" class="st0" x1="373.9" y1="189.7" x2="361.3" y2="201.6"/>
			<line id="svg_836" class="st0" x1="374.9" y1="189" x2="198" y2="189"/>
			<line id="svg_837" class="st0" x1="361.3" y1="201.6" x2="198" y2="201.6"/>
			<line id="svg_838" class="st0" x1="198" y1="189" x2="198" y2="201.6"/>
			<line id="svg_839" class="st0" x1="373.9" y1="189.7" x2="361.3" y2="201.6"/>
		</g>
	</g>
</g>
</svg>
